<?xml version="1.0" encoding="utf-8"?><svg xmlns="http://www.w3.org/2000/svg" xmlns:xlink="http://www.w3.org/1999/xlink"><symbol viewBox="0 0 109 40" id="logo" xmlns="http://www.w3.org/2000/svg"><path d="M23.026 23.646v4.196c-.181 1.528-1.01 2.768-2.509 3.72-1.476.941-3.293 1.406-5.45 1.406-2.135 0-3.883-.454-5.234-1.35-1.329-.897-1.999-2.026-1.999-3.421 0-1.218.5-2.193 1.5-2.945.998-.742 2.656-1.373 4.995-1.872l5.018-1.063c7.063-1.472 10.594-4.97 10.594-10.484 0-3.432-1.374-6.222-4.133-8.36C23.072 1.37 19.541.33 15.215.33c-4.451 0-8.005 1.03-10.673 3.1C1.908 5.478.556 8.213.488 11.633h7.55c.126-1.583.841-2.823 2.158-3.753 1.295-.896 2.963-1.35 4.996-1.35 1.998 0 3.6.42 4.803 1.273 1.226.852 1.84 1.97 1.84 3.355 0 1.14-.5 2.08-1.5 2.812-.976.697-2.577 1.295-4.803 1.793l-4.666.964c-3.86.796-6.676 2.048-8.436 3.753-1.771 1.67-2.657 3.94-2.657 6.808 0 3.643 1.408 6.533 4.212 8.67 2.816 2.147 6.609 3.232 11.4 3.232 4.644 0 8.334-1.007 11.082-3.022 2.759-2.026 4.2-4.805 4.326-8.326V17.734c-1.306 2.336-3.68 4.495-7.767 5.912zm16.384-8.824c-.59-.642-.885-1.517-.885-2.624 0-1.096.295-1.96.885-2.613.59-.653 1.374-.974 2.373-.974.784 0 1.442.21 1.999.631.545.42.885.985.999 1.672h-1.102a1.754 1.754 0 0 0-.68-.985 2.03 2.03 0 0 0-1.204-.366c-.648 0-1.159.244-1.544.72-.386.476-.58 1.118-.58 1.915 0 .808.194 1.45.58 1.927.386.476.897.72 1.555.72.477 0 .874-.112 1.204-.322.329-.21.556-.51.68-.897h1.102c-.159.687-.488 1.218-1.01 1.606-.523.387-1.181.575-1.987.575-1-.01-1.794-.332-2.385-.985zm7.937.842V9.663h-2.214v-.93h5.53v.93h-2.215v6h-1.101zm4.667-.012v-.93c.113.034.25.045.408.045.477 0 .852-.21 1.102-.642l-2.396-5.381h1.17l1.793 4.251h.034l1.738-4.251h1.146l-2.168 4.938c-.33.753-.67 1.284-1 1.572-.352.31-.794.465-1.35.465-.24 0-.387-.022-.477-.066zm5.904 1.385h-1.01v-2.303h.51c.432-.244.681-.842.738-1.794l.261-4.196h4.621v5.99h.886v2.303h-1.01v-1.362h-5.008v1.361h.012zm1.26-4.053c-.057.83-.216 1.395-.488 1.705v.034h3.247V9.652h-2.543l-.216 3.332zM69.67 10.46h-.07l-3.61 5.204h-1.068v-6.92h1.09v5.226h.068l3.61-5.226h1.068v6.92h-1.09V10.46zm3.349 5.204h-1.26l1.975-2.746a2.186 2.186 0 0 1-1.18-.72 1.998 1.998 0 0 1-.444-1.295c0-.642.216-1.163.659-1.561.443-.399 1.022-.598 1.726-.598h2.759v6.92h-1.102v-2.602H74.87l-1.85 2.602zm3.145-6.012h-1.442c-.466 0-.83.11-1.09.332-.261.221-.386.531-.386.93s.125.72.386.93c.26.221.613.332 1.09.332h1.442V9.652zm-32.87 11.027c1.055 0 1.918.31 2.577.941.658.631.988 1.461.988 2.491s-.341 1.86-1.022 2.491-1.567.941-2.657.941h-2.032v3.167H38.99V20.668h4.303v.01zm-2.146 5.226h1.566c.614 0 1.102-.155 1.442-.465.341-.31.511-.753.511-1.318 0-.575-.17-1.007-.51-1.317-.341-.31-.818-.454-1.431-.454h-1.567v3.554h-.011zM55.17 30.72h-6.824V20.68h6.824v1.727h-4.666v2.425h4.405v1.616h-4.405v2.524h4.666v1.75zm12.671 0h-1.919v-6.775h-.057l-2.793 6.676h-1.35l-2.794-6.676h-.057v6.776h-1.919V20.679h2.498l2.93 7.119h.056l2.93-7.12h2.498v10.043h-.023zm10.287-8.823c.897.93 1.34 2.203 1.34 3.797 0 1.595-.443 2.857-1.34 3.787-.897.93-2.1 1.395-3.622 1.395-1.522 0-2.736-.465-3.622-1.395-.897-.93-1.34-2.193-1.34-3.787 0-1.605.443-2.867 1.34-3.797.886-.93 2.1-1.395 3.622-1.395 1.521 0 2.725.465 3.622 1.395zm-5.643 1.295c-.5.62-.76 1.462-.76 2.513 0 1.052.249 1.883.749 2.503.5.62 1.169.93 2.02.93.84 0 1.51-.31 2.01-.93.5-.62.75-1.462.75-2.503 0-1.051-.25-1.893-.75-2.513-.5-.62-1.17-.93-2.01-.93-.84-.01-1.51.3-2.01.93zm15.339 7.528v-4.229h-4.632v4.23h-2.157V20.679h2.157v4.074h4.632V20.68h2.158v10.04h-2.158zm6.666 0v-8.303h-3.01V20.69h8.186v1.727h-3.02v8.304H94.49zm11.433-2.435h-3.622l-.783 2.436h-2.215l3.577-10.042h2.532l3.577 10.042h-2.294l-.772-2.436zm-3.156-1.572h2.691l-1.317-4.108h-.046l-1.328 4.108z"/></symbol><symbol viewBox="0 0 17 17" id="search" xmlns="http://www.w3.org/2000/svg"><path d="M16.851 16.133l-4.131-4.131a7.22 7.22 0 0 0 1.78-4.753c0-4-3.254-7.249-7.25-7.249C3.252 0 .003 3.253.003 7.249c0 3.995 3.253 7.248 7.249 7.248a7.22 7.22 0 0 0 4.753-1.779l4.131 4.131a.496.496 0 0 0 .716 0 .51.51 0 0 0 0-.716zM1.016 7.249a6.238 6.238 0 0 1 6.23-6.231 6.238 6.238 0 0 1 6.232 6.23c0 3.434-2.793 6.235-6.231 6.235-3.434 0-6.231-2.797-6.231-6.234z"/></symbol></svg>