<?xml version="1.0" encoding="utf-8"?><svg xmlns="http://www.w3.org/2000/svg" xmlns:xlink="http://www.w3.org/1999/xlink"><symbol viewBox="0 0 33 33" id="carousel_arrow" xmlns="http://www.w3.org/2000/svg"><path d="M10.04 16.5L24.945 1.595a.93.93 0 0 0 0-1.321.93.93 0 0 0-1.32 0L8.055 15.842a.93.93 0 0 0 0 1.321l15.567 15.56a.94.94 0 0 0 .657.277.91.91 0 0 0 .657-.277.93.93 0 0 0 0-1.32L10.041 16.498z"/><defs><clipPath id="aclip0"><path transform="matrix(-1 0 0 1 33 0)" d="M0 0h33v33H0z"/></clipPath></defs></symbol><symbol viewBox="0 0 81 26" id="dorohov" xmlns="http://www.w3.org/2000/svg"><path d="M33.477 11.501v-6.03h2.569c1.902 0 3.303 1.12 3.303 2.999 0 1.878-1.368 2.998-3.27 2.998h-2.602v.033zm4.27-2.998c0-.923-.567-1.648-1.668-1.648h-1v3.295h1c1.035 0 1.668-.758 1.668-1.647zm2.203 0c0-1.845 1.4-3.097 3.269-3.097 1.868 0 3.236 1.285 3.236 3.097S45.054 11.6 43.22 11.6c-1.902 0-3.27-1.285-3.27-3.097zm4.904 0c0-.989-.634-1.746-1.635-1.746-1 0-1.668.757-1.668 1.746 0 .988.634 1.746 1.668 1.746.968 0 1.635-.79 1.635-1.746zm5.938 2.998l-1.034-2.01h-.8v2.01h-1.569v-6.03h3.036c1.335 0 2.102.89 2.102 2.01 0 1.055-.634 1.615-1.201 1.812l1.234 2.208h-1.768zm.167-4.02c0-.395-.334-.626-.767-.626h-1.235V8.14h1.235c.4 0 .767-.23.767-.659zm2.202 1.022c0-1.845 1.401-3.097 3.27-3.097 1.868 0 3.236 1.285 3.236 3.097S58.266 11.6 56.43 11.6c-1.869 0-3.27-1.285-3.27-3.097zm4.938 0c0-.989-.634-1.746-1.635-1.746s-1.668.757-1.668 1.746c0 .988.634 1.746 1.668 1.746.968 0 1.635-.79 1.635-1.746zm6.606 2.998V9.096h-2.536V11.5h-1.568V5.47h1.568v2.274h2.536v-2.24h1.568V11.5h-1.568zm2.502-2.998c0-1.845 1.401-3.097 3.27-3.097 1.868 0 3.236 1.285 3.236 3.097S72.31 11.6 70.476 11.6c-1.868 0-3.27-1.285-3.27-3.097zm4.904 0c0-.989-.634-1.746-1.668-1.746-1 0-1.668.757-1.668 1.746 0 .988.634 1.746 1.668 1.746 1.034 0 1.668-.79 1.668-1.746zm3.937 2.998l-2.302-6.03h1.768l1.501 4.35 1.502-4.35h1.768l-2.302 5.997h-1.935v.033zm-42.571 8.995V14.5h2.569c1.902 0 3.303 1.12 3.303 2.998 0 1.878-1.368 2.998-3.27 2.998h-2.602zm4.27-2.998c0-.923-.567-1.648-1.668-1.648h-1v3.295h1c1.035 0 1.668-.758 1.668-1.647zm2.536 2.998V14.5h4.437v1.35h-2.902v.923h2.836v1.35h-2.836v1.022h2.902v1.35h-4.437zm5.138-.824l.834-1.154a2.745 2.745 0 0 0 1.935.791c.534 0 .867-.197.867-.494 0-.824-3.436-.165-3.436-2.471 0-1.021.868-1.91 2.436-1.91.967 0 1.835.296 2.468.823l-.867 1.12c-.5-.428-1.168-.626-1.768-.626-.467 0-.668.165-.668.428 0 .758 3.437.198 3.437 2.438 0 1.22-.9 2.01-2.536 2.01-1.234 0-2.101-.395-2.702-.955zm6.139.824V14.5h1.567v5.996H51.56zm2.502-2.999c0-1.91 1.468-3.097 3.303-3.097 1.368 0 2.168.725 2.602 1.45l-1.301.659c-.234-.395-.7-.758-1.301-.758-1.001 0-1.702.758-1.702 1.746 0 .989.7 1.747 1.702 1.747.433 0 .9-.165 1.134-.363v-.461h-1.368v-1.35h2.936v2.404c-.667.725-1.535 1.186-2.702 1.186-1.802-.033-3.303-1.252-3.303-3.163zm11.243 2.999l-2.569-3.46v3.493h-1.568v-6.03h1.602l2.468 3.295V14.5h1.569v5.997h-1.502zM11.157.002H.748v25.93h10.476c8.808 0 14.48-5.107 14.48-12.981C25.67 5.076 19.997.002 11.156.002zm-.267 20.724H6.253V5.571h4.704c5.438 0 9.241 2.108 9.241 7.412 0 4.25-3.47 7.743-9.308 7.743z"/><path d="M11.958 9.887h-1.201v6.16h1.201c2.369 0 3.77-1.416 3.77-3.162-.033-2.142-1.568-2.998-3.77-2.998z"/></symbol><symbol viewBox="0 0 12 19" id="fb" xmlns="http://www.w3.org/2000/svg"><path d="M11.398.004L8.563 0C5.377 0 3.319 1.835 3.319 4.676v2.156H.468c-.247 0-.446.173-.446.387v3.124c0 .214.2.388.446.388h2.85v7.882c0 .214.2.387.446.387h3.72c.247 0 .446-.174.446-.387V10.73h3.333c.247 0 .446-.174.446-.388l.002-3.124a.364.364 0 0 0-.131-.274.482.482 0 0 0-.316-.113H7.93V5.004c0-.878.24-1.324 1.558-1.324h1.91c.246 0 .445-.174.445-.388v-2.9c0-.214-.199-.388-.445-.388z"/></symbol><symbol viewBox="0 0 21 19" id="inst" xmlns="http://www.w3.org/2000/svg"><path d="M2.758 0h14.866c1.412 0 2.567.993 2.567 2.439V16.56c0 1.446-1.155 2.439-2.567 2.439H2.758c-1.412 0-2.567-.993-2.567-2.439V2.44C.19.993 1.346 0 2.758 0zM14.76 2.111c-.495 0-.9.385-.9.855v2.048c0 .47.405.855.9.855h2.26c.496 0 .901-.385.901-.855V2.966c0-.47-.405-.855-.9-.855H14.76zm3.17 5.924h-1.76a5.29 5.29 0 0 1 .257 1.63c0 3.16-2.784 5.722-6.217 5.722s-6.216-2.562-6.216-5.722c0-.567.09-1.114.256-1.63H2.413v8.026c0 .415.358.755.796.755h13.927c.437 0 .795-.34.795-.755V8.035zm-7.72-2.274c-2.218 0-4.017 1.656-4.017 3.698s1.799 3.697 4.017 3.697c2.218 0 4.017-1.655 4.017-3.697S12.428 5.76 10.21 5.76z"/></symbol><symbol viewBox="0 0 109 40" id="logo" xmlns="http://www.w3.org/2000/svg"><path d="M23.026 23.646v4.196c-.181 1.528-1.01 2.768-2.509 3.72-1.476.941-3.293 1.406-5.45 1.406-2.135 0-3.883-.454-5.234-1.35-1.329-.897-1.999-2.026-1.999-3.421 0-1.218.5-2.193 1.5-2.945.998-.742 2.656-1.373 4.995-1.872l5.018-1.063c7.063-1.472 10.594-4.97 10.594-10.484 0-3.432-1.374-6.222-4.133-8.36C23.072 1.37 19.541.33 15.215.33c-4.451 0-8.005 1.03-10.673 3.1C1.908 5.478.556 8.213.488 11.633h7.55c.126-1.583.841-2.823 2.158-3.753 1.295-.896 2.963-1.35 4.996-1.35 1.998 0 3.6.42 4.803 1.273 1.226.852 1.84 1.97 1.84 3.355 0 1.14-.5 2.08-1.5 2.812-.976.697-2.577 1.295-4.803 1.793l-4.666.964c-3.86.796-6.676 2.048-8.436 3.753-1.771 1.67-2.657 3.94-2.657 6.808 0 3.643 1.408 6.533 4.212 8.67 2.816 2.147 6.609 3.232 11.4 3.232 4.644 0 8.334-1.007 11.082-3.022 2.759-2.026 4.2-4.805 4.326-8.326V17.734c-1.306 2.336-3.68 4.495-7.767 5.912zm16.384-8.824c-.59-.642-.885-1.517-.885-2.624 0-1.096.295-1.96.885-2.613.59-.653 1.374-.974 2.373-.974.784 0 1.442.21 1.999.631.545.42.885.985.999 1.672h-1.102a1.754 1.754 0 0 0-.68-.985 2.03 2.03 0 0 0-1.204-.366c-.648 0-1.159.244-1.544.72-.386.476-.58 1.118-.58 1.915 0 .808.194 1.45.58 1.927.386.476.897.72 1.555.72.477 0 .874-.112 1.204-.322.329-.21.556-.51.68-.897h1.102c-.159.687-.488 1.218-1.01 1.606-.523.387-1.181.575-1.987.575-1-.01-1.794-.332-2.385-.985zm7.937.842V9.663h-2.214v-.93h5.53v.93h-2.215v6h-1.101zm4.667-.012v-.93c.113.034.25.045.408.045.477 0 .852-.21 1.102-.642l-2.396-5.381h1.17l1.793 4.251h.034l1.738-4.251h1.146l-2.168 4.938c-.33.753-.67 1.284-1 1.572-.352.31-.794.465-1.35.465-.24 0-.387-.022-.477-.066zm5.904 1.385h-1.01v-2.303h.51c.432-.244.681-.842.738-1.794l.261-4.196h4.621v5.99h.886v2.303h-1.01v-1.362h-5.008v1.361h.012zm1.26-4.053c-.057.83-.216 1.395-.488 1.705v.034h3.247V9.652h-2.543l-.216 3.332zM69.67 10.46h-.07l-3.61 5.204h-1.068v-6.92h1.09v5.226h.068l3.61-5.226h1.068v6.92h-1.09V10.46zm3.349 5.204h-1.26l1.975-2.746a2.186 2.186 0 0 1-1.18-.72 1.998 1.998 0 0 1-.444-1.295c0-.642.216-1.163.659-1.561.443-.399 1.022-.598 1.726-.598h2.759v6.92h-1.102v-2.602H74.87l-1.85 2.602zm3.145-6.012h-1.442c-.466 0-.83.11-1.09.332-.261.221-.386.531-.386.93s.125.72.386.93c.26.221.613.332 1.09.332h1.442V9.652zm-32.87 11.027c1.055 0 1.918.31 2.577.941.658.631.988 1.461.988 2.491s-.341 1.86-1.022 2.491-1.567.941-2.657.941h-2.032v3.167H38.99V20.668h4.303v.01zm-2.146 5.226h1.566c.614 0 1.102-.155 1.442-.465.341-.31.511-.753.511-1.318 0-.575-.17-1.007-.51-1.317-.341-.31-.818-.454-1.431-.454h-1.567v3.554h-.011zM55.17 30.72h-6.824V20.68h6.824v1.727h-4.666v2.425h4.405v1.616h-4.405v2.524h4.666v1.75zm12.671 0h-1.919v-6.775h-.057l-2.793 6.676h-1.35l-2.794-6.676h-.057v6.776h-1.919V20.679h2.498l2.93 7.119h.056l2.93-7.12h2.498v10.043h-.023zm10.287-8.823c.897.93 1.34 2.203 1.34 3.797 0 1.595-.443 2.857-1.34 3.787-.897.93-2.1 1.395-3.622 1.395-1.522 0-2.736-.465-3.622-1.395-.897-.93-1.34-2.193-1.34-3.787 0-1.605.443-2.867 1.34-3.797.886-.93 2.1-1.395 3.622-1.395 1.521 0 2.725.465 3.622 1.395zm-5.643 1.295c-.5.62-.76 1.462-.76 2.513 0 1.052.249 1.883.749 2.503.5.62 1.169.93 2.02.93.84 0 1.51-.31 2.01-.93.5-.62.75-1.462.75-2.503 0-1.051-.25-1.893-.75-2.513-.5-.62-1.17-.93-2.01-.93-.84-.01-1.51.3-2.01.93zm15.339 7.528v-4.229h-4.632v4.23h-2.157V20.679h2.157v4.074h4.632V20.68h2.158v10.04h-2.158zm6.666 0v-8.303h-3.01V20.69h8.186v1.727h-3.02v8.304H94.49zm11.433-2.435h-3.622l-.783 2.436h-2.215l3.577-10.042h2.532l3.577 10.042h-2.294l-.772-2.436zm-3.156-1.572h2.691l-1.317-4.108h-.046l-1.328 4.108z"/></symbol><symbol viewBox="0 0 100 16" id="mastercard" xmlns="http://www.w3.org/2000/svg"><path d="M21.52 3.443c-2.285 0-4.037.638-4.037.638L17 6.578s1.445-.51 3.633-.51c1.242 0 2.149.12 2.149.996 0 .533-.11.73-.11.73s-.978-.07-1.432-.07c-2.883 0-5.911 1.066-5.911 4.292 0 2.542 1.985 3.121 3.218 3.121 2.352 0 3.367-1.325 3.419-1.328l-.11 1.107h2.935L26.1 6.94c-.002-3.388-3.4-3.497-4.579-3.497zm-1.646 9.268c-1.034 0-1.304-.685-1.304-1.094 0-.792.494-1.746 2.937-1.746.57.002.631.053.726.068.064.488-.35 2.772-2.359 2.772zM32.12 6.118c.47 0 2.277.13 2.277.13l.421-2.557s-1.171-.227-3.076-.227c-2.466 0-4.967.856-4.967 3.782 0 3.318 4.172 2.98 4.172 4.38 0 .93-1.166 1.008-2.064 1.008-1.558 0-2.957-.462-2.962-.443l-.444 2.535c.08.02.943.353 3.74.353.75 0 5.041.17 5.041-3.68 0-3.6-3.972-2.889-3.972-4.336 0-.72.646-.945 1.834-.945zm7.013.326h1.765l.425-2.725H39.66l.339-1.689h-3.332c-.074.062-1.968 9.527-1.968 10.675 0 1.71 1.104 2.468 2.657 2.455 1.216-.007 2.164-.3 2.499-.38l.416-2.463c-.229 0-.563.086-.859.086-1.16 0-1.287-.538-1.214-.934l.935-5.025zm-27.89-5.307L7.958 9.6l-.17-8.464H2.924L.258 14.929h3.216L5.503 4.532 5.8 14.929h2.296l4.282-10.397-1.898 10.397h3.412l2.629-13.792h-5.279zm64.312 2.306c-2.29 0-4.039.638-4.039.638l-.486 2.497s1.447-.51 3.633-.51c1.242 0 2.151.12 2.151.996 0 .533-.114.73-.114.73s-.977-.07-1.435-.07c-2.881 0-5.907 1.066-5.907 4.292 0 2.542 1.987 3.121 3.218 3.121 2.35 0 3.365-1.325 3.419-1.328l-.11 1.107h2.933l1.309-7.976c.007-3.388-3.393-3.497-4.572-3.497zm-1.642 9.268c-1.036 0-1.304-.685-1.304-1.094 0-.792.494-1.746 2.937-1.746.568.002.629.053.726.068.063.488-.354 2.772-2.359 2.772zm25.704.947a.86.86 0 0 0-.38-.326 1.126 1.126 0 0 0-.993 0 .87.87 0 0 0-.378.326.797.797 0 0 0-.136.44.78.78 0 0 0 .136.435c.088.139.214.25.373.328a1.135 1.135 0 0 0 1.005 0 .905.905 0 0 0 .373-.328.777.777 0 0 0 0-.875zm-.14.802a.764.764 0 0 1-.313.274.954.954 0 0 1-.836 0 .756.756 0 0 1-.315-.274.641.641 0 0 1 .004-.73.747.747 0 0 1 .315-.273.95.95 0 0 1 .825 0 .73.73 0 0 1 .316.273.68.68 0 0 1 .116.366.655.655 0 0 1-.112.364z"/><path d="M99.084 14.396a1.222 1.222 0 0 0-.16-.187.256.256 0 0 0-.093-.05.36.36 0 0 0 .225-.086.244.244 0 0 0 .086-.18.226.226 0 0 0-.051-.139.306.306 0 0 0-.134-.092.96.96 0 0 0-.277-.028h-.38v.946h.177v-.402h.102a.26.26 0 0 1 .142.032.96.96 0 0 1 .186.224l.093.148h.218l-.134-.186zm-.389-.347h-.213v-.287h.198c.087 0 .143.005.177.015a.176.176 0 0 1 .072.05.113.113 0 0 1 .028.078c0 .04-.02.077-.052.103-.041.032-.108.041-.21.041zM86.881 3.58c-1.492 0-2.6 1.77-2.6 1.77l.298-1.627h-3.106l-2.08 11.227h3.421c.974-4.797 1.151-8.688 3.465-7.977.408-1.854.801-2.573 1.244-3.355 0 .001-.208-.038-.642-.038zm8.596-2.428l-.719 3.875S93.505 3.52 91.54 3.52c-3.057.002-5.601 3.202-5.601 6.877 0 2.374 1.359 4.699 4.132 4.699 1.998 0 3.104-1.21 3.104-1.21l-.145 1.034h3.242L98.82 1.146l-3.343.006zM91.25 12.28c-1.201 0-1.762-.875-1.762-2.248 0-2.247 1.16-3.728 2.626-3.728 1.197.002 1.812.717 1.812 2.402 0 1.53-.87 3.574-2.676 3.574zm-40.192-2.009s.438-1.877.438-2.64c0-1.91-1.093-4.236-4.752-4.236-3.352.001-5.833 3.14-5.833 6.687 0 4.093 3.108 5.065 5.758 5.065 2.445 0 3.52-.477 3.52-.477l.588-2.793s-1.86.714-3.54.714c-3.579 0-2.953-2.32-2.953-2.32h6.774zm-4.303-4.277c1.881 0 1.534 1.837 1.534 1.984h-3.7c0-.19.35-1.984 2.166-1.984zM66.69 3.779c1.696 0 3.059.828 3.059.828l.544-3.069s-2.017-.71-3.754-.71c-3.846 0-7.589 2.902-7.589 8.35 0 3.613 2.019 5.998 5.998 5.998 1.123 0 2.915-.396 2.915-.396l.597-3.16s-1.633.711-2.756.711c-2.368-.002-3.316-1.57-3.316-3.252 0-3.421 2.035-5.3 4.303-5.3zm-7.8-.195c-1.493 0-2.599 1.77-2.599 1.77l.3-1.628h-3.103l-2.08 11.227h3.42c.97-4.795 1.152-8.687 3.465-7.976.406-1.856.797-2.575 1.24-3.36 0 0-.207-.037-.643-.033z"/></symbol><symbol viewBox="0 0 17 17" id="search" xmlns="http://www.w3.org/2000/svg"><path d="M16.851 16.133l-4.131-4.131a7.22 7.22 0 0 0 1.78-4.753c0-4-3.254-7.249-7.25-7.249C3.252 0 .003 3.253.003 7.249c0 3.995 3.253 7.248 7.249 7.248a7.22 7.22 0 0 0 4.753-1.779l4.131 4.131a.496.496 0 0 0 .716 0 .51.51 0 0 0 0-.716zM1.016 7.249a6.238 6.238 0 0 1 6.23-6.231 6.238 6.238 0 0 1 6.232 6.23c0 3.434-2.793 6.235-6.231 6.235-3.434 0-6.231-2.797-6.231-6.234z"/></symbol><symbol viewBox="0 0 56 16" id="visa" xmlns="http://www.w3.org/2000/svg"><path d="M22.853.799l-2.797 14.266h4.474L27.33.799h-4.477zm-6.549.016l-4.382 9.729-.468-1.469c-.864-1.77-3.318-4.312-6.198-5.914l4.007 11.897 4.735-.007L21.044.812l-4.74.003z"/><path d="M9.756 1.836C9.496.966 8.742.708 7.806.676H.87L.812.962C6.21 2.1 9.782 4.842 11.265 8.139l-1.51-6.302zm26.643 1.698a9.354 9.354 0 0 1 3.349.546l.403.165.606-3.092C39.87.864 38.482.554 36.748.554c-4.421 0-7.537 1.935-7.562 4.708-.028 2.05 2.22 3.193 3.919 3.876 1.743.7 2.328 1.145 2.32 1.77-.014.955-1.39 1.393-2.676 1.393-1.792 0-2.743-.215-4.213-.747l-.576-.228-.63 3.193c1.047.4 2.98.742 4.985.76 4.704 0 7.76-1.912 7.793-4.875.02-1.62-1.174-2.858-3.76-3.873-1.565-.662-2.523-1.102-2.514-1.77 0-.593.813-1.227 2.565-1.227zM52.24.815h-3.457c-1.074 0-1.873.254-2.345 1.184l-6.643 13.074h4.698s.767-1.758.94-2.143l5.73.006c.134.498.546 2.137.546 2.137h4.151L52.24.815zm-5.52 9.195c.369-.82 1.783-3.987 1.783-3.987-.024.039.365-.825.596-1.362l.302 1.23 1.037 4.119H46.72z"/></symbol><symbol viewBox="0 0 26 14" id="vk" xmlns="http://www.w3.org/2000/svg"><path d="M25.058 12.52a1.61 1.61 0 0 0-.084-.156c-.434-.75-1.263-1.671-2.486-2.762l-.026-.025-.013-.013-.013-.012h-.013c-.556-.508-.907-.85-1.055-1.025-.27-.333-.33-.67-.182-1.012.104-.258.495-.804 1.171-1.637.356-.442.638-.796.846-1.062 1.502-1.916 2.153-3.14 1.953-3.674l-.078-.124c-.052-.075-.186-.144-.403-.207-.217-.062-.495-.072-.833-.03l-3.749.024a.506.506 0 0 0-.26.006l-.17.038-.065.031-.052.038a.571.571 0 0 0-.143.13.852.852 0 0 0-.13.22 20.048 20.048 0 0 1-1.393 2.811c-.32.517-.616.964-.885 1.343-.269.38-.495.659-.677.838a4.65 4.65 0 0 1-.494.43c-.148.109-.26.155-.339.138a9.694 9.694 0 0 1-.221-.05.845.845 0 0 1-.293-.306 1.332 1.332 0 0 1-.15-.488 5.169 5.169 0 0 1-.045-.506 10.11 10.11 0 0 1 .006-.6c.01-.258.014-.433.014-.524 0-.317.006-.66.019-1.031l.032-.881c.01-.217.013-.446.013-.687 0-.242-.015-.431-.045-.569a1.89 1.89 0 0 0-.136-.4.682.682 0 0 0-.267-.3 1.54 1.54 0 0 0-.436-.169c-.46-.1-1.046-.154-1.758-.162-1.614-.017-2.65.084-3.11.3a1.746 1.746 0 0 0-.495.375c-.156.183-.178.283-.065.3.52.075.889.254 1.106.537l.078.15c.06.108.122.3.182.575.061.275.1.579.117.912a9.341 9.341 0 0 1 0 1.562c-.043.433-.084.77-.123 1.012-.04.242-.098.437-.176.587-.078.15-.13.242-.156.275a.221.221 0 0 1-.065.063 1.01 1.01 0 0 1-.352.062c-.121 0-.269-.058-.442-.175a3.083 3.083 0 0 1-.54-.48 6.446 6.446 0 0 1-.632-.857c-.234-.366-.477-.8-.729-1.3l-.208-.362a30.96 30.96 0 0 1-.533-1.018 19.296 19.296 0 0 1-.6-1.294.828.828 0 0 0-.312-.4L5.098.943A.906.906 0 0 0 4.89.836a1.425 1.425 0 0 0-.3-.081L1.025.779C.66.78.412.86.282 1.017l-.052.075a.39.39 0 0 0-.04.2c0 .092.027.204.08.337a40.534 40.534 0 0 0 1.698 3.4c.611 1.09 1.143 1.97 1.594 2.636.451.666.911 1.295 1.38 1.886.469.592.779.971.93 1.137.152.167.272.292.359.375l.325.3c.208.2.514.44.918.719.403.279.85.554 1.34.825.49.27 1.061.491 1.712.662.65.17 1.284.24 1.9.206h1.497c.304-.025.534-.117.69-.275l.052-.063a.812.812 0 0 0 .098-.23 1.22 1.22 0 0 0 .045-.344c-.009-.358.02-.68.085-.968.064-.288.138-.504.221-.65.083-.146.176-.269.28-.368.104-.1.178-.161.222-.182a.857.857 0 0 1 .103-.043c.209-.067.454-.003.736.193s.547.438.794.725c.247.288.545.61.892.968.347.359.65.625.91.8l.261.15c.174.1.4.192.677.275.277.083.52.104.729.063l3.332-.05c.329 0 .586-.053.768-.157.182-.104.29-.219.325-.343a.929.929 0 0 0 .007-.425 1.478 1.478 0 0 0-.092-.331z"/></symbol></svg>