<?xml version="1.0" standalone="no"?>
<!DOCTYPE svg PUBLIC "-//W3C//DTD SVG 20010904//EN"
 "http://www.w3.org/TR/2001/REC-SVG-20010904/DTD/svg10.dtd">
<svg version="1.0" xmlns="http://www.w3.org/2000/svg"
 width="93.000000pt" height="93.000000pt" viewBox="0 0 93.000000 93.000000"
 preserveAspectRatio="xMidYMid meet">
<metadata>
Created by potrace 1.11, written by Peter Selinger 2001-2013
</metadata>
<g transform="translate(0.000000,93.000000) scale(0.100000,-0.100000)"
fill="#000000" stroke="none">
<path d="M333 905 c-60 -16 -125 -55 -159 -93 -30 -34 -57 -102 -52 -133 3
-23 7 -24 85 -24 79 -1 83 0 92 24 30 79 129 115 232 85 55 -16 78 -40 86 -88
9 -58 -37 -92 -167 -121 -8 -2 -49 -11 -90 -20 -179 -38 -260 -116 -260 -251
0 -155 129 -259 335 -271 146 -8 261 27 328 101 57 62 61 80 65 241 l4 150
-41 -42 c-22 -23 -63 -52 -91 -65 l-50 -23 0 -50 c0 -28 -8 -66 -18 -85 -47
-95 -246 -113 -317 -29 -27 33 -32 68 -14 101 15 28 82 55 194 78 135 29 200
55 250 104 50 48 70 105 62 182 -11 110 -86 190 -212 227 -66 19 -197 20 -262
2z"/>
</g>
</svg>
