<svg width="608" height="761" viewBox="0 0 608 761" fill="none" xmlns="http://www.w3.org/2000/svg">
<path d="M455.777 456.6V494.758V505.815V538.771C452.218 568.69 435.97 592.973 406.594 611.619C377.664 630.047 342.056 639.153 299.771 639.153C257.933 639.153 223.66 630.264 197.178 612.703C171.139 595.141 158.009 573.027 158.009 545.709C158.009 521.859 167.801 502.78 187.385 488.038C206.969 473.511 239.461 461.152 285.307 451.397L383.672 430.584C522.097 401.747 591.31 333.236 591.31 225.264C591.31 158.054 564.382 103.418 510.302 61.5735C456.668 20.3803 387.455 0 302.666 0C215.426 0 145.769 20.1631 93.4701 60.7065C41.8389 100.816 15.3558 154.369 14.0205 221.362H162.015C164.463 190.359 178.484 166.076 204.299 147.864C229.669 130.302 262.383 121.413 302.219 121.413C341.389 121.413 372.767 129.652 396.358 146.346C420.393 163.041 432.411 184.938 432.411 212.04C432.411 234.37 422.617 252.799 403.034 267.109C383.894 280.769 352.516 292.476 308.896 302.231L217.43 321.095C141.763 336.704 86.5711 361.204 52.0762 394.592C17.3587 427.331 0 471.777 0 527.93C0 599.261 27.596 655.848 82.5652 697.692C137.757 739.753 212.088 761 306.003 761C397.025 761 469.352 741.271 523.21 701.812C577.288 662.136 605.552 607.715 608 538.771V505.815V494.758V340.824C582.407 386.571 535.895 428.848 455.777 456.6Z" fill="white"/>
</svg>
