<svg width="14" height="15" viewBox="0 0 14 15" fill="none" xmlns="http://www.w3.org/2000/svg">
<path d="M2.8 6.5C3.88889 8.83332 5.75556 10.75 7.93333 12L9.64443 10.1666C9.87774 9.91668 10.1889 9.83338 10.4223 9.99997C11.2777 10.3333 12.211 10.5 13.2223 10.5C13.6889 10.5 14 10.8334 14 11.3333V14.1667C14 14.6666 13.6889 15 13.2223 15C5.91111 15 0 8.66667 0 0.833333C0 0.333334 0.311111 0 0.777777 0H3.5C3.96667 0 4.27777 0.333334 4.27777 0.833333C4.27777 1.83334 4.43333 2.83333 4.74444 3.83333C4.82223 4.08334 4.74444 4.41667 4.58889 4.66667L2.8 6.5Z" fill="#1289E0"/>
</svg>
