<svg width="17" height="17" viewBox="0 0 17 17" fill="none" xmlns="http://www.w3.org/2000/svg">
<g clip-path="url(#clip0)">
<path d="M7.6877 8.44304L0.163074 15.9677C-0.0459727 16.1767 -0.0459727 16.5154 0.163074 16.7244C0.267465 16.8291 0.404527 16.8812 0.541324 16.8812C0.678387 16.8812 0.815184 16.8291 0.919574 16.7244L8.50078 9.14323L16.082 16.7244C16.1866 16.8291 16.3234 16.8812 16.4602 16.8812C16.597 16.8812 16.7341 16.8291 16.8385 16.7244C17.0475 16.5154 17.0475 16.1767 16.8385 15.9677L9.31412 8.44304L16.8435 0.913107C17.0526 0.704061 17.0526 0.365389 16.8435 0.156342C16.6345 -0.0524395 16.2958 -0.0524395 16.087 0.156342L8.50104 7.74286L0.914262 0.156607C0.705215 -0.0521738 0.366809 -0.0521738 0.157762 0.156607C-0.0512852 0.365654 -0.0512852 0.704326 0.157762 0.913373L7.6877 8.44304Z" fill="#DCDCDC"/>
</g>
<defs>
<clipPath id="clip0">
<rect width="17" height="17" fill="white"/>
</clipPath>
</defs>
</svg>
