<svg width="81" height="26" viewBox="0 0 81 26" fill="none" xmlns="http://www.w3.org/2000/svg">
<path d="M33.4771 11.501V5.47168H36.0459C37.9476 5.47168 39.3489 6.59188 39.3489 8.46978C39.3489 10.3478 37.981 11.468 36.0793 11.468H33.4771V11.501ZM37.7474 8.50278C37.7474 7.58028 37.1803 6.85548 36.0793 6.85548H35.0784V10.1501H36.0793C37.1135 10.1501 37.7474 9.39238 37.7474 8.50278Z" fill="#7D7D7D"/>
<path d="M39.9495 8.50276C39.9495 6.65766 41.3507 5.40576 43.219 5.40576C45.0874 5.40576 46.4552 6.69066 46.4552 8.50276C46.4552 10.3149 45.054 11.5998 43.219 11.5998C41.3174 11.5998 39.9495 10.3149 39.9495 8.50276ZM44.8538 8.50276C44.8538 7.51436 44.2199 6.75656 43.219 6.75656C42.2181 6.75656 41.5509 7.51436 41.5509 8.50276C41.5509 9.49116 42.1848 10.249 43.219 10.249C44.1866 10.249 44.8538 9.45816 44.8538 8.50276Z" fill="#7D7D7D"/>
<path d="M50.7922 11.501L49.758 9.49118H48.9573V11.501H47.3892V5.47168H50.4252C51.7597 5.47168 52.5271 6.36118 52.5271 7.48138C52.5271 8.53568 51.8932 9.09578 51.326 9.29348L52.5605 11.501H50.7922ZM50.959 7.48138C50.959 7.08608 50.6254 6.85548 50.1917 6.85548H48.9573V8.14038H50.1917C50.592 8.14038 50.959 7.90978 50.959 7.48138Z" fill="#7D7D7D"/>
<path d="M53.161 8.50276C53.161 6.65766 54.5623 5.40576 56.4306 5.40576C58.2989 5.40576 59.6668 6.69066 59.6668 8.50276C59.6668 10.3149 58.2655 11.5998 56.4306 11.5998C54.5623 11.5998 53.161 10.3149 53.161 8.50276ZM58.0987 8.50276C58.0987 7.51436 57.4648 6.75656 56.4639 6.75656C55.463 6.75656 54.7958 7.51436 54.7958 8.50276C54.7958 9.49116 55.4297 10.249 56.4639 10.249C57.4315 10.249 58.0987 9.45816 58.0987 8.50276Z" fill="#7D7D7D"/>
<path d="M64.7047 11.501V9.09578H62.1691V11.501H60.6011V5.47168H62.1691V7.74498H64.7047V5.50458H66.2728V11.501H64.7047Z" fill="#7D7D7D"/>
<path d="M67.2068 8.50276C67.2068 6.65766 68.608 5.40576 70.4763 5.40576C72.3447 5.40576 73.7125 6.69066 73.7125 8.50276C73.7125 10.3149 72.3113 11.5998 70.4763 11.5998C68.608 11.5998 67.2068 10.3149 67.2068 8.50276ZM72.1111 8.50276C72.1111 7.51436 71.4772 6.75656 70.443 6.75656C69.4421 6.75656 68.7748 7.51436 68.7748 8.50276C68.7748 9.49116 69.4087 10.249 70.443 10.249C71.4772 10.249 72.1111 9.45816 72.1111 8.50276Z" fill="#7D7D7D"/>
<path d="M76.0478 11.501L73.7458 5.47168H75.514L77.0154 9.82068L78.5167 5.47168H80.285L77.9829 11.468H76.0478V11.501Z" fill="#7D7D7D"/>
<path d="M33.4771 20.4958V14.4995H36.0459C37.9476 14.4995 39.3489 15.6197 39.3489 17.4977C39.3489 19.3757 37.981 20.4958 36.0793 20.4958H33.4771ZM37.7474 17.4977C37.7474 16.5752 37.1803 15.8503 36.0793 15.8503H35.0784V19.145H36.0793C37.1135 19.145 37.7474 18.3872 37.7474 17.4977Z" fill="#7D7D7D"/>
<path d="M40.283 20.4958V14.4995H44.7203V15.8503H41.8177V16.7728H44.6535V18.1237H41.8177V19.145H44.7203V20.4958H40.283Z" fill="#7D7D7D"/>
<path d="M45.421 19.6717L46.255 18.5185C46.6887 18.9468 47.356 19.3092 48.1901 19.3092C48.7239 19.3092 49.0575 19.1116 49.0575 18.815C49.0575 17.9914 45.6211 18.6503 45.6211 16.344C45.6211 15.3227 46.4886 14.4331 48.0566 14.4331C49.0241 14.4331 49.8916 14.7296 50.5255 15.2568L49.658 16.377C49.1576 15.9487 48.4903 15.751 47.8898 15.751C47.4227 15.751 47.2225 15.9157 47.2225 16.1793C47.2225 16.9371 50.6589 16.377 50.6589 18.6174C50.6589 19.8364 49.7581 20.6271 48.1233 20.6271C46.8889 20.6271 46.0215 20.2318 45.421 19.6717Z" fill="#7D7D7D"/>
<path d="M51.5594 20.4958V14.4995H53.1275V20.4958H51.5594Z" fill="#7D7D7D"/>
<path d="M54.0618 17.4974C54.0618 15.5865 55.5297 14.4004 57.3647 14.4004C58.7326 14.4004 59.5333 15.1252 59.967 15.8501L58.6658 16.509C58.4323 16.1136 57.9652 15.7512 57.3647 15.7512C56.3638 15.7512 55.6632 16.509 55.6632 17.4974C55.6632 18.4858 56.3638 19.2436 57.3647 19.2436C57.7984 19.2436 58.2655 19.0789 58.499 18.8812V18.4199H57.1311V17.0691H60.0671V19.4742C59.3998 20.199 58.5324 20.6603 57.3647 20.6603C55.5631 20.6274 54.0618 19.4083 54.0618 17.4974Z" fill="#7D7D7D"/>
<path d="M65.3052 20.4959L62.7362 17.0364V20.5288H61.1682V14.4995H62.7696L65.2384 17.7942V14.4995H66.8065V20.4959H65.3052Z" fill="#7D7D7D"/>
<path d="M11.1572 0.00244141H0.748047V25.9317H11.2239C20.0317 25.9317 25.7034 20.8249 25.7034 12.9506C25.67 5.07634 19.9984 0.00244141 11.1572 0.00244141ZM10.8903 20.7261H6.25295V5.57054H10.957C16.3952 5.57054 20.1985 7.67914 20.1985 12.9835C20.1985 17.2337 16.7288 20.7261 10.8903 20.7261Z" fill="#7D7D7D"/>
<path d="M11.958 9.88672H10.757V16.0478H11.958C14.3268 16.0478 15.728 14.6311 15.728 12.8849C15.6947 10.7433 14.16 9.88672 11.958 9.88672Z" fill="#7D7D7D"/>
</svg>
