<svg width="12" height="19" viewBox="0 0 12 19" fill="none" xmlns="http://www.w3.org/2000/svg">
<path d="M11.3983 0.00395012L8.56282 0C5.37732 0 3.31863 1.8353 3.31863 4.67593V6.83184H0.4677C0.22134 6.83184 0.0218506 7.00539 0.0218506 7.21946V10.3431C0.0218506 10.5572 0.22157 10.7306 0.4677 10.7306H3.31863V18.6126C3.31863 18.8267 3.51813 19 3.76448 19H7.48412C7.73052 19 7.93002 18.8265 7.93002 18.6126V10.7306H11.2634C11.5097 10.7306 11.7092 10.5572 11.7092 10.3431L11.7106 7.21946C11.7106 7.11667 11.6635 7.01824 11.58 6.9455C11.4965 6.87276 11.3828 6.83184 11.2645 6.83184H7.93002V5.00424C7.93002 4.12583 8.17092 3.6799 9.48772 3.6799L11.3978 3.67931C11.6439 3.67931 11.8434 3.50576 11.8434 3.29189V0.39137C11.8434 0.1777 11.6442 0.00435012 11.3983 0.00395012Z" fill="black"/>
</svg>
