<svg width="21" height="19" viewBox="0 0 21 19" fill="none" xmlns="http://www.w3.org/2000/svg">
<path d="M2.75802 0H17.6238C19.0356 0 20.1907 0.99297 20.1907 2.43852V16.5615C20.1907 18.007 19.0356 19 17.6238 19H2.75802C1.34582 19 0.190918 18.007 0.190918 16.5615V2.43852C0.190918 0.99297 1.34582 0 2.75802 0ZM14.76 2.11098C14.2647 2.11098 13.86 2.49568 13.86 2.96642V5.0138C13.86 5.48434 14.2647 5.86923 14.76 5.86923H17.0205C17.5158 5.86923 17.921 5.48434 17.921 5.0138V2.96642C17.921 2.49568 17.5158 2.11098 17.0205 2.11098H14.76ZM17.9304 8.035H16.1702C16.3367 8.5516 16.4269 9.0988 16.4269 9.6649C16.4269 12.8253 13.6431 15.3871 10.2099 15.3871C6.77692 15.3871 3.99362 12.8253 3.99362 9.6649C3.99362 9.0984 4.08352 8.5514 4.25032 8.035H2.41342V16.0609C2.41342 16.4762 2.77112 16.8163 3.20852 16.8163H17.1357C17.5731 16.8163 17.9308 16.4764 17.9308 16.0609V8.035H17.9304ZM10.2097 5.76135C7.99152 5.76135 6.19312 7.41662 6.19312 9.4587C6.19312 11.5009 7.99152 13.1561 10.2097 13.1561C12.4281 13.1561 14.2268 11.5009 14.2268 9.4587C14.2268 7.41662 12.4283 5.76135 10.2097 5.76135Z" fill="black"/>
</svg>
