<svg width="109" height="40" viewBox="0 0 109 40" fill="none" xmlns="http://www.w3.org/2000/svg">
<path d="M23.0263 23.6461V25.5946V26.1593V27.8422C22.8446 29.37 22.0157 30.61 20.517 31.5622C19.041 32.5032 17.2243 32.9682 15.067 32.9682C12.9324 32.9682 11.1838 32.5143 9.83277 31.6175C8.5043 30.7207 7.83441 29.5915 7.83441 28.1965C7.83441 26.9785 8.33399 26.0043 9.33313 25.2515C10.3323 24.5096 11.99 23.8785 14.329 23.3804L19.3475 22.3175C26.4098 20.845 29.941 17.3465 29.941 11.8328C29.941 8.40073 28.5671 5.61073 25.808 3.47391C23.0717 1.37036 19.5405 0.329636 15.2146 0.329636C10.7638 0.329636 7.20993 1.35927 4.5417 3.42964C1.90753 5.47782 0.556387 8.21254 0.488262 11.6335H8.03878C8.16368 10.0504 8.87902 8.81036 10.1961 7.88036C11.4905 6.98355 13.1595 6.52964 15.1919 6.52964C17.1903 6.52964 18.7912 6.95036 19.9947 7.80282C21.221 8.65536 21.8341 9.77355 21.8341 11.1575C21.8341 12.2978 21.3345 13.2389 20.3354 13.9696C19.3588 14.6672 17.7579 15.265 15.5325 15.7632L10.866 16.7265C7.00555 17.5235 4.18972 18.7746 2.42983 20.4796C0.658574 22.1515 -0.227051 24.4211 -0.227051 27.2885C-0.227051 30.9311 1.18087 33.8207 3.98534 35.9575C6.80117 38.1054 10.5935 39.1904 15.3849 39.1904C20.0288 39.1904 23.7188 38.1829 26.4666 36.1679C29.2256 34.1418 30.6676 31.3628 30.7925 27.8422V26.1593V25.5946V17.7339C29.4868 20.07 27.1138 22.2289 23.0263 23.6461Z" fill="white"/>
<path d="M39.4103 14.8222C38.8198 14.18 38.5247 13.3054 38.5247 12.1982C38.5247 11.1022 38.8198 10.2385 39.4103 9.58536C40.0007 8.93217 40.7841 8.61108 41.7833 8.61108C42.5667 8.61108 43.2253 8.82145 43.7816 9.24217C44.3266 9.66281 44.6672 10.2275 44.7808 10.9139H43.6795C43.5659 10.5043 43.3389 10.1722 42.9982 9.92854C42.6576 9.68499 42.2489 9.56318 41.7947 9.56318C41.1474 9.56318 40.6365 9.80681 40.2505 10.2828C39.8645 10.7589 39.6714 11.4011 39.6714 12.1982C39.6714 13.0064 39.8645 13.6485 40.2505 14.1246C40.6365 14.6007 41.1475 14.8443 41.806 14.8443C42.2829 14.8443 42.6803 14.7335 43.0096 14.5232C43.3389 14.3128 43.5659 14.0139 43.6908 13.6264H44.7922C44.6332 14.3128 44.3039 14.8443 43.7816 15.2318C43.2594 15.6193 42.6008 15.8075 41.7947 15.8075C40.7955 15.7964 40.0007 15.4754 39.4103 14.8222Z" fill="white"/>
<path d="M47.3469 15.6635V9.66282H45.1328V8.73282H50.6623V9.66282H48.4483V15.6635H47.3469Z" fill="white"/>
<path d="M52.0136 15.6525V14.7225C52.127 14.7557 52.2633 14.7668 52.4223 14.7668C52.8992 14.7668 53.2738 14.5565 53.5236 14.1246L51.1279 8.74391H52.2974L54.0913 12.9954H54.1254L55.8626 8.74391H57.0094L54.8407 13.6818C54.5114 14.4346 54.1708 14.9661 53.8415 15.2539C53.4895 15.5639 53.0468 15.7189 52.4904 15.7189C52.2519 15.7189 52.1044 15.6968 52.0136 15.6525Z" fill="white"/>
<path d="M57.9178 17.0365H56.9072V14.7335H57.4182C57.8496 14.49 58.0995 13.8922 58.1562 12.94L58.4173 8.74391H63.0385V14.7335H63.9241V17.0365H62.9136V15.6746H57.9064V17.0365H57.9178ZM59.178 12.9843C59.1213 13.8146 58.9623 14.3793 58.6898 14.6893V14.7225H61.9371V9.65182H59.3937L59.178 12.9843Z" fill="white"/>
<path d="M69.6692 10.46H69.601L65.9904 15.6635H64.9231V8.74391H66.0131V13.9696H66.0812L69.6918 8.74391H70.7592V15.6635H69.6692V10.46Z" fill="white"/>
<path d="M73.0187 15.6635H71.7583L73.7339 12.9178C73.2457 12.7961 72.8483 12.5525 72.5531 12.1982C72.2579 11.8328 72.1103 11.4011 72.1103 10.9028C72.1103 10.2607 72.3261 9.74037 72.7688 9.34182C73.2117 8.94319 73.7907 8.74391 74.4946 8.74391H77.2538V15.6635H76.1524V13.0618H74.8694L73.0187 15.6635ZM76.1638 9.65182H74.7218C74.2562 9.65182 73.8929 9.76246 73.6318 9.98391C73.3706 10.2054 73.2457 10.5154 73.2457 10.9139C73.2457 11.3125 73.3706 11.6335 73.6318 11.8439C73.8929 12.0654 74.2449 12.1761 74.7218 12.1761H76.1638V9.65182Z" fill="white"/>
<path d="M43.2935 20.6789C44.3494 20.6789 45.2123 20.9889 45.8709 21.62C46.5294 22.2511 46.8586 23.0815 46.8586 24.1111C46.8586 25.1407 46.518 25.9711 45.8368 26.6022C45.1555 27.2332 44.2699 27.5432 43.1799 27.5432H41.1476V30.7096H38.9902V20.6678H43.2935V20.6789ZM41.1476 25.9046H42.7144C43.3276 25.9046 43.8158 25.7496 44.1564 25.4396C44.497 25.1296 44.6673 24.6868 44.6673 24.1222C44.6673 23.5465 44.497 23.1146 44.1564 22.8046C43.8158 22.4946 43.3389 22.3507 42.7258 22.3507H41.1589V25.9046H41.1476Z" fill="white"/>
<path d="M55.17 30.7207H48.3462V20.6789H55.17V22.4061H50.5035V24.8307H54.909V26.4472H50.5035V28.9715H55.17V30.7207Z" fill="white"/>
<path d="M67.8411 30.7207H65.9222V23.945H65.8654L63.0723 30.6211H61.7211L58.928 23.945H58.8713V30.7207H56.9524V20.6789H59.4503L62.3797 27.7978H62.4365L65.3659 20.6789H67.8638V30.7207H67.8411Z" fill="white"/>
<path d="M78.1279 21.8968C79.0249 22.8268 79.4678 24.1 79.4678 25.6943C79.4678 27.2885 79.0249 28.5507 78.1279 29.4807C77.231 30.4107 76.0274 30.8757 74.506 30.8757C72.9845 30.8757 71.7696 30.4107 70.884 29.4807C69.987 28.5507 69.5442 27.2885 69.5442 25.6943C69.5442 24.0889 69.987 22.8268 70.884 21.8968C71.7696 20.9668 72.9845 20.5018 74.506 20.5018C76.0274 20.5018 77.231 20.9668 78.1279 21.8968ZM72.4849 23.1922C71.9853 23.8122 71.7242 24.6535 71.7242 25.7054C71.7242 26.7572 71.974 27.5875 72.4736 28.2075C72.9732 28.8275 73.643 29.1375 74.4946 29.1375C75.3348 29.1375 76.0047 28.8275 76.5043 28.2075C77.0039 27.5875 77.2537 26.7461 77.2537 25.7054C77.2537 24.6535 77.0039 23.8122 76.5043 23.1922C76.0047 22.5722 75.3348 22.2622 74.4946 22.2622C73.6545 22.2511 72.9845 22.5611 72.4849 23.1922Z" fill="white"/>
<path d="M87.8244 30.7207V26.4915H83.1919V30.7207H81.0347V20.6789H83.1919V24.7532H87.8244V20.6789H89.9821V30.7207H87.8244Z" fill="white"/>
<path d="M94.4899 30.7207V22.4172H91.481V20.69H99.6674V22.4172H96.647V30.7207H94.4899Z" fill="white"/>
<path d="M105.923 28.285H102.301L101.518 30.7207H99.3035L102.88 20.6789H105.412L108.989 30.7207H106.695L105.923 28.285ZM102.767 26.7128H105.458L104.141 22.6054H104.095L102.767 26.7128Z" fill="white"/>
</svg>
