<svg width="100" height="16" viewBox="0 0 100 16" fill="none" xmlns="http://www.w3.org/2000/svg">
<path d="M21.52 3.44336C19.235 3.44336 17.4832 4.08146 17.4832 4.08146L16.9994 6.57756C16.9994 6.57756 18.444 6.06706 20.632 6.06706C21.874 6.06706 22.781 6.18716 22.781 7.06356C22.781 7.59656 22.671 7.79366 22.671 7.79366C22.671 7.79366 21.693 7.72426 21.239 7.72426C18.356 7.72426 15.3276 8.79026 15.3276 12.0164C15.3276 14.5576 17.3125 15.1375 18.546 15.1375C20.898 15.1375 21.913 13.8125 21.965 13.8088L21.855 14.9161H24.79L26.099 6.93976C26.097 3.55216 22.699 3.44336 21.52 3.44336ZM19.874 12.7108C18.84 12.7108 18.57 12.0258 18.57 11.6167C18.57 10.8247 19.064 9.87126 21.507 9.87126C22.077 9.87316 22.138 9.92376 22.233 9.93886C22.297 10.4268 21.883 12.7108 19.874 12.7108Z" fill="black"/>
<path d="M32.1201 6.11757C32.5891 6.11757 34.3971 6.24707 34.3971 6.24707L34.8181 3.69097C34.8181 3.69097 33.647 3.46387 31.7421 3.46387C29.2761 3.46387 26.7751 4.31967 26.7751 7.24557C26.7751 10.5637 30.9471 10.2259 30.9471 11.6259C30.9471 12.5568 29.7811 12.6338 28.8831 12.6338C27.3251 12.6338 25.9261 12.1721 25.9211 12.1909L25.4771 14.7264C25.5561 14.7451 26.4201 15.0792 29.2171 15.0792C29.9671 15.0792 34.2581 15.2481 34.2581 11.3989C34.2581 7.79916 30.2861 8.51047 30.2861 7.06347C30.2861 6.34277 30.9321 6.11757 32.1201 6.11757Z" fill="black"/>
<path d="M39.133 6.44437H40.898L41.323 3.71937H39.66L39.999 2.03027H36.667C36.593 2.09217 34.699 11.5568 34.699 12.7053C34.699 14.4151 35.803 15.1733 37.356 15.1602C38.572 15.1527 39.52 14.8599 39.855 14.7792L40.271 12.3169C40.042 12.3169 39.708 12.4032 39.412 12.4032C38.252 12.4032 38.125 11.8646 38.198 11.4686L39.133 6.44437Z" fill="black"/>
<path d="M11.2434 1.13672L7.95832 9.60102L7.78762 1.13672H2.92372L0.258423 14.9291H3.47443L5.50253 4.53182L5.80062 14.9291H8.09652L12.3794 4.53182L10.4809 14.9291H13.8935L16.522 1.13672H11.2434Z" fill="black"/>
<path d="M75.555 3.44336C73.265 3.44336 71.516 4.08146 71.516 4.08146L71.03 6.57756C71.03 6.57756 72.477 6.06706 74.663 6.06706C75.905 6.06706 76.814 6.18716 76.814 7.06356C76.814 7.59656 76.7 7.79366 76.7 7.79366C76.7 7.79366 75.723 7.72426 75.265 7.72426C72.384 7.72426 69.358 8.79026 69.358 12.0164C69.358 14.5576 71.345 15.1375 72.576 15.1375C74.926 15.1375 75.941 13.8125 75.995 13.8088L75.885 14.9161H78.818L80.127 6.93976C80.134 3.55216 76.734 3.44336 75.555 3.44336ZM73.913 12.7108C72.877 12.7108 72.609 12.0258 72.609 11.6167C72.609 10.8247 73.103 9.87126 75.546 9.87126C76.114 9.87316 76.175 9.92376 76.272 9.93886C76.335 10.4268 75.918 12.7108 73.913 12.7108Z" fill="black"/>
<path d="M99.617 13.6583C99.529 13.5157 99.399 13.4068 99.237 13.3318C99.077 13.2548 98.913 13.2173 98.741 13.2173C98.574 13.2192 98.408 13.2567 98.244 13.3318C98.082 13.4068 97.957 13.5157 97.866 13.6583C97.775 13.7991 97.73 13.9455 97.73 14.0975C97.73 14.2495 97.775 14.394 97.866 14.5329C97.954 14.6718 98.08 14.7825 98.239 14.8613C98.401 14.9383 98.568 14.9777 98.741 14.9777C98.918 14.9777 99.086 14.9383 99.244 14.8613C99.404 14.7825 99.529 14.6718 99.617 14.5329C99.71 14.394 99.751 14.2495 99.751 14.0975C99.751 13.9417 99.708 13.7953 99.617 13.6583ZM99.477 14.4597C99.404 14.5761 99.3 14.6643 99.164 14.7337C99.03 14.7975 98.892 14.8313 98.747 14.8313C98.6 14.8313 98.46 14.7975 98.328 14.7337C98.192 14.668 98.09 14.5779 98.013 14.4597C97.935 14.3415 97.9 14.2214 97.9 14.0956C97.9 13.9699 97.937 13.8479 98.017 13.7296C98.093 13.6133 98.194 13.5232 98.332 13.4575C98.471 13.3918 98.607 13.3637 98.747 13.3637C98.887 13.3637 99.026 13.3937 99.157 13.4575C99.296 13.5232 99.397 13.6114 99.473 13.7296C99.548 13.8479 99.589 13.9699 99.589 14.0956C99.589 14.2214 99.553 14.3433 99.477 14.4597Z" fill="black"/>
<path d="M99.084 14.3963C99.021 14.308 98.965 14.2461 98.924 14.2086C98.898 14.1879 98.87 14.171 98.831 14.1598C98.924 14.1541 99 14.1241 99.056 14.0734C99.11 14.0246 99.142 13.9608 99.142 13.8933C99.142 13.8464 99.125 13.7976 99.091 13.7544C99.056 13.7131 99.011 13.6812 98.957 13.6624C98.903 13.6437 98.808 13.6343 98.68 13.6343H98.3V14.5802H98.4771V14.1785H98.579C98.641 14.1785 98.691 14.1898 98.721 14.2105C98.767 14.2442 98.827 14.3155 98.907 14.4338L99 14.5821H99.218L99.084 14.3963ZM98.6951 14.049H98.482V13.7619H98.68C98.767 13.7619 98.823 13.7675 98.857 13.7769C98.885 13.7901 98.911 13.8032 98.929 13.8276C98.948 13.852 98.957 13.8726 98.957 13.9045C98.957 13.9458 98.937 13.9815 98.905 14.0078C98.864 14.0397 98.7971 14.049 98.6951 14.049Z" fill="black"/>
<path d="M86.8811 3.58008C85.3891 3.58008 84.2811 5.34988 84.2811 5.34988L84.5791 3.72268H81.4731L79.3931 14.9496H82.8141C83.7881 10.1525 83.9651 6.26198 86.2791 6.97328C86.6871 5.11898 87.0801 4.40018 87.5231 3.61758C87.5231 3.61948 87.3151 3.58008 86.8811 3.58008Z" fill="black"/>
<path d="M95.477 1.1516L94.758 5.02719C94.758 5.02719 93.505 3.5201 91.54 3.5201C88.483 3.522 85.939 6.7219 85.939 10.3966C85.939 12.7707 87.298 15.096 90.071 15.096C92.069 15.096 93.175 13.8855 93.175 13.8855L93.03 14.9196H96.272L98.82 1.146L95.477 1.1516ZM91.25 12.2809C90.049 12.2809 89.488 11.4063 89.488 10.0325C89.488 7.786 90.648 6.30519 92.114 6.30519C93.311 6.3071 93.926 7.0222 93.926 8.7075C93.926 10.2371 93.056 12.2809 91.25 12.2809Z" fill="black"/>
<path d="M51.058 10.271C51.058 10.271 51.496 8.39433 51.496 7.63043C51.496 5.72173 50.403 3.39453 46.744 3.39453C43.392 3.39643 40.911 6.53443 40.911 10.0815C40.911 14.1747 44.019 15.1469 46.669 15.1469C49.114 15.1469 50.189 14.6702 50.189 14.6702L50.777 11.8775C50.777 11.8775 48.917 12.5907 47.237 12.5907C43.658 12.5907 44.284 10.271 44.284 10.271H51.058ZM46.755 5.99393C48.636 5.99393 48.289 7.83123 48.289 7.97763H44.589C44.589 7.78813 44.939 5.99393 46.755 5.99393Z" fill="black"/>
<path d="M66.6909 3.77891C68.3859 3.77891 69.7489 4.60651 69.7489 4.60651L70.293 1.53801C70.293 1.53801 68.276 0.828613 66.539 0.828613C62.693 0.828613 58.95 3.73011 58.95 9.17841C58.95 12.7911 60.969 15.1765 64.948 15.1765C66.071 15.1765 67.863 14.7805 67.863 14.7805L68.46 11.62C68.46 11.62 66.8269 12.3313 65.7039 12.3313C63.3359 12.3295 62.388 10.7605 62.388 9.07891C62.388 5.65751 64.4229 3.77891 66.6909 3.77891Z" fill="black"/>
<path d="M58.89 3.58377C57.397 3.58377 56.291 5.35356 56.291 5.35356L56.591 3.72636H53.488L51.408 14.9532H54.8289C55.7989 10.1581 55.98 6.26567 58.293 6.97697C58.699 5.12077 59.09 4.40197 59.533 3.61747C59.533 3.61747 59.326 3.57997 58.89 3.58377Z" fill="black"/>
</svg>
