<svg width="14" height="14" viewBox="0 0 14 14" fill="none" xmlns="http://www.w3.org/2000/svg">
<path d="M7 0C3.14004 0 0 3.14004 0 7C0 10.86 3.14004 14 7 14C10.86 14 14 10.86 14 7C14 3.14004 10.86 0 7 0ZM7 13.4615C3.43727 13.4615 0.538462 10.5627 0.538462 7C0.538462 3.43727 3.43727 0.538462 7 0.538462C10.5627 0.538462 13.4615 3.43727 13.4615 7C13.4615 10.5627 10.5627 13.4615 7 13.4615Z" fill="#2972C6"/>
<path d="M6.99994 9.96167C6.85106 9.96167 6.73071 10.082 6.73071 10.2309V10.7694C6.73071 10.9182 6.85106 11.0386 6.99994 11.0386C7.14883 11.0386 7.26917 10.9182 7.26917 10.7694V10.2309C7.26917 10.082 7.14883 9.96167 6.99994 9.96167Z" fill="#2972C6"/>
<path d="M7.03046 2.42337C7.02023 2.42337 7.01 2.4231 6.9995 2.4231C6.42981 2.4231 5.89404 2.64252 5.48777 3.0434C5.07423 3.45129 4.84619 3.99594 4.84619 4.57694C4.84619 4.72583 4.96654 4.84617 5.11542 4.84617C5.26431 4.84617 5.38465 4.72583 5.38465 4.57694C5.38465 4.14133 5.55562 3.73263 5.86577 3.42679C6.17619 3.12067 6.58946 2.9516 7.02319 2.96183C7.87423 2.97367 8.60331 3.70275 8.61515 4.55379C8.62296 5.11486 8.34619 5.63125 7.8745 5.93548C7.15835 6.39748 6.73081 7.21379 6.73081 8.11948V8.88463C6.73081 9.03352 6.85115 9.15386 7.00004 9.15386C7.14892 9.15386 7.26927 9.03352 7.26927 8.88463V8.11948C7.26927 7.40817 7.61281 6.74506 8.16635 6.38779C8.795 5.98233 9.16412 5.2939 9.15362 4.54625C9.13746 3.39206 8.18492 2.43952 7.03046 2.42337Z" fill="#2972C6"/>
</svg>
