<svg width="52" height="52" viewBox="0 0 52 52" fill="none" xmlns="http://www.w3.org/2000/svg">
<g clip-path="url(#clip0)">
<path d="M26 -0.000244141C11.664 -0.000244141 0 11.6628 0 25.9998C0 40.3368 11.664 51.9998 26 51.9998C40.336 51.9998 52 40.3368 52 25.9998C52 11.6628 40.336 -0.000244141 26 -0.000244141ZM26 49.9998C12.767 49.9998 2 39.2328 2 25.9998C2 12.7668 12.767 1.99976 26 1.99976C39.233 1.99976 50 12.7668 50 25.9998C50 39.2328 39.233 49.9998 26 49.9998Z" fill="#1289E0"/>
<path d="M26 9.99976C25.448 9.99976 25 10.4468 25 10.9998V32.9998C25 33.5528 25.448 33.9998 26 33.9998C26.552 33.9998 27 33.5528 27 32.9998V10.9998C27 10.4468 26.552 9.99976 26 9.99976Z" fill="#1289E0"/>
<path d="M26 36.9998C25.448 36.9998 25 37.4468 25 37.9998V39.9998C25 40.5528 25.448 40.9998 26 40.9998C26.552 40.9998 27 40.5528 27 39.9998V37.9998C27 37.4468 26.552 36.9998 26 36.9998Z" fill="#1289E0"/>
</g>
<defs>
<clipPath id="clip0">
<rect width="52" height="52" fill="white"/>
</clipPath>
</defs>
</svg>
