<svg width="52" height="52" viewBox="0 0 52 52" fill="none" xmlns="http://www.w3.org/2000/svg">
<g clip-path="url(#clip0)">
<path d="M26 -0.000244141C11.664 -0.000244141 0 11.6628 0 25.9998C0 40.3368 11.664 51.9998 26 51.9998C40.336 51.9998 52 40.3368 52 25.9998C52 11.6628 40.336 -0.000244141 26 -0.000244141ZM26 49.9998C12.767 49.9998 2 39.2328 2 25.9998C2 12.7668 12.767 1.99976 26 1.99976C39.233 1.99976 50 12.7668 50 25.9998C50 39.2328 39.233 49.9998 26 49.9998Z" fill="#1289E0"/>
<path d="M38.2519 15.3357L22.8829 32.6257L13.6239 25.2187C13.1939 24.8737 12.5629 24.9447 12.2189 25.3747C11.8739 25.8067 11.9439 26.4357 12.3749 26.7807L22.3749 34.7807C22.5589 34.9277 22.7799 34.9997 22.9999 34.9997C23.2759 34.9997 23.5509 34.8857 23.7479 34.6637L39.7479 16.6637C40.1149 16.2517 40.0779 15.6187 39.6649 15.2527C39.2509 14.8847 38.6199 14.9217 38.2519 15.3357Z" fill="#1289E0"/>
</g>
<defs>
<clipPath id="clip0">
<rect width="52" height="52" fill="white"/>
</clipPath>
</defs>
</svg>
