<svg width="52" height="52" viewBox="0 0 52 52" fill="none" xmlns="http://www.w3.org/2000/svg">
<g clip-path="url(#clip0)">
<path d="M26 -0.000244141C11.6406 -0.000244141 0 11.6404 0 25.9998C0 40.3591 11.6406 51.9998 26 51.9998C40.3594 51.9998 52 40.3591 52 25.9998C51.9816 11.648 40.3517 0.01816 26 -0.000244141ZM27.1154 49.7132H26.6104C26.6915 49.7132 26.967 49.7132 26.351 49.7132C25.735 49.7132 26.0916 49.7132 26 49.7132H24.8846C12.6541 49.1293 2.87048 39.3457 2.28657 27.1152V26.1458C2.28657 25.4998 2.28657 25.8426 2.28657 25.8426C2.28657 25.2266 2.28657 26.1458 2.28657 25.4998V24.8844C2.87048 12.6538 12.6541 2.87024 24.8846 2.28633H26.1838C25.5678 2.28633 26.3126 2.29528 26.1838 2.28633C27.1154 2.28633 27.1486 2.28794 27.1154 2.28633C39.3459 2.87024 49.1295 12.6538 49.7134 24.8844V26.4998C49.7134 26.4998 49.7134 25.9603 49.7134 26.5763C49.7134 27.1922 49.7134 26.4998 49.7134 26.4998V26.8126L49.7246 27.1152C49.1403 39.3497 39.3502 49.1348 27.1154 49.7132Z" fill="#1289E0"/>
<path d="M37.7676 36.373L27.1156 25.5424V14.288C27.1156 13.672 26.6161 13.1726 26.0002 13.1726C25.3842 13.1726 24.8848 13.672 24.8848 14.288V25.9997C24.886 26.2924 25.0022 26.5728 25.2082 26.7805L36.1726 37.9345C36.6039 38.375 37.3105 38.3825 37.7509 37.9513C38.1914 37.52 38.1989 36.8134 37.7676 36.373Z" fill="#1289E0"/>
</g>
<defs>
<clipPath id="clip0">
<rect width="52" height="52" fill="white"/>
</clipPath>
</defs>
</svg>
