<svg width="54" height="54" viewBox="0 0 54 54" fill="none" xmlns="http://www.w3.org/2000/svg">
<g clip-path="url(#clip0)">
<path d="M43 20.1128V14.4998C43 6.50476 35.822 -0.000244141 27 -0.000244141C18.178 -0.000244141 11 6.50476 11 14.4998V20.1128C7.599 20.6988 5 23.6628 5 27.2298V46.7718C5 50.7568 8.243 53.9998 12.229 53.9998H41.771C45.757 53.9998 49 50.7568 49 46.7708V27.2288C49 23.6628 46.401 20.6988 43 20.1128ZM13 14.4998C13 7.60676 19.28 1.99976 27 1.99976C34.72 1.99976 41 7.60676 41 14.4998V19.9998H13V14.4998ZM47 46.7708C47 49.6538 44.654 51.9998 41.771 51.9998H12.229C9.346 51.9998 7 49.6538 7 46.7708V27.2288C7 24.3458 9.346 21.9998 12.229 21.9998H41.771C44.654 21.9998 47 24.3458 47 27.2288V46.7708Z" fill="#1289E0"/>
<path d="M27 27.9998C24.794 27.9998 23 29.7938 23 31.9998V37.9998C23 40.2058 24.794 41.9998 27 41.9998C29.206 41.9998 31 40.2058 31 37.9998V31.9998C31 29.7938 29.206 27.9998 27 27.9998ZM29 37.9998C29 39.1028 28.103 39.9998 27 39.9998C25.897 39.9998 25 39.1028 25 37.9998V31.9998C25 30.8968 25.897 29.9998 27 29.9998C28.103 29.9998 29 30.8968 29 31.9998V37.9998Z" fill="#1289E0"/>
</g>
<defs>
<clipPath id="clip0">
<rect width="54" height="54" fill="white"/>
</clipPath>
</defs>
</svg>
