<svg width="54" height="54" viewBox="0 0 54 54" fill="none" xmlns="http://www.w3.org/2000/svg">
<path d="M33.7049 15.9996C32.1243 15.994 28.8261 15.9415 27.0599 17.7096L26.7449 18.0246V18.0396C24.8586 19.939 24.6393 22.7777 25.9949 24.9096L16.1549 33.9096L16.1399 33.9246C15.7086 34.3558 15.2549 35.0796 15.1199 35.9796C14.9849 36.8796 15.2174 37.9521 16.1399 38.8746C17.0624 39.7971 18.1349 40.0296 19.0349 39.8946C19.9349 39.7596 20.6586 39.3058 21.0899 38.8746H21.1049V38.8596C21.1049 38.8596 23.3643 36.304 25.6499 33.7596C26.7936 32.4865 27.9374 31.2208 28.8149 30.2796C29.2536 29.809 29.6324 29.4171 29.8949 29.1546C29.968 29.0815 30.0055 29.0402 30.0599 28.9896C32.1936 30.3958 35.0624 30.2008 36.9749 28.2846L37.2899 27.9696C38.1524 27.109 38.5518 25.8508 38.7599 24.6246C38.968 23.3983 38.9661 22.1871 38.9699 21.3846C38.9718 21.2008 38.968 21.0208 38.8199 20.8446C38.6718 20.6683 38.3943 20.6215 38.2499 20.6496C37.9611 20.7077 37.8449 20.8596 37.8449 20.8596L37.8299 20.8746C37.8299 20.8746 35.0849 23.6327 34.7099 24.0096C34.6949 24.019 34.6911 24.0208 34.6649 24.0246C34.5786 24.0377 34.4436 24.0527 34.2749 24.0546C33.9393 24.0583 33.478 24.0358 33.0299 23.9946C32.5818 23.9533 32.1318 23.884 31.7849 23.8146C31.6105 23.779 31.4643 23.7415 31.3649 23.7096C31.3293 23.6983 31.3086 23.6908 31.2899 23.6796C31.2786 23.6627 31.2693 23.6458 31.2599 23.6196C31.228 23.524 31.2036 23.3683 31.1699 23.1996C31.1024 22.8621 31.0424 22.4233 31.0049 21.9846C30.9674 21.5458 30.9468 21.1015 30.9599 20.7696C30.9674 20.6027 30.973 20.4677 30.9899 20.3796C30.9993 20.3365 31.0143 20.3121 31.0199 20.3046C31.4361 19.8883 34.1699 17.1696 34.1699 17.1696L34.1849 17.1546V17.1396C34.1849 17.1396 34.3274 17.0383 34.3949 16.7646C34.4286 16.6277 34.4174 16.3615 34.2449 16.1946C34.0724 16.0277 33.8868 15.9996 33.7049 15.9996ZM33.0749 16.9596C32.4786 17.5558 30.6318 19.4027 30.3299 19.7046C30.1499 19.8846 30.1368 20.0383 30.1049 20.1996C30.073 20.3608 30.0524 20.5427 30.0449 20.7396C30.028 21.1315 30.0505 21.5908 30.0899 22.0596C30.1293 22.5283 30.1911 22.9933 30.2699 23.3796C30.3093 23.5727 30.3543 23.7527 30.4049 23.9046C30.4555 24.0565 30.4874 24.1821 30.6449 24.3396C30.8061 24.5008 30.9261 24.529 31.0799 24.5796C31.2336 24.6302 31.408 24.6752 31.6049 24.7146C31.9986 24.7933 32.4805 24.8496 32.9549 24.8946C33.4293 24.9396 33.8886 24.9733 34.2749 24.9696C34.468 24.9677 34.648 24.9471 34.7999 24.9246C34.9518 24.9021 35.0811 24.9433 35.2949 24.7296C35.5311 24.4915 37.4155 22.5827 38.0249 21.9696C38.0136 22.7177 38.0155 23.5558 37.8599 24.4746C37.6686 25.6071 37.2824 26.6871 36.6449 27.3246L36.3299 27.6396C34.4755 29.4958 31.6218 29.4471 29.8049 27.6246L27.4049 25.2246C25.5899 23.4002 25.543 20.5427 27.3899 18.6846L27.7049 18.3546C28.8993 17.1583 31.4211 16.9877 33.0749 16.9596ZM26.5199 25.5996C26.5986 25.6896 26.6736 25.7833 26.7599 25.8696L29.1599 28.2696C29.2255 28.3352 29.3005 28.3877 29.3699 28.4496C29.3361 28.4833 29.3174 28.5021 29.2799 28.5396C29.0024 28.8152 28.6274 29.2052 28.1849 29.6796C27.2999 30.6283 26.1486 31.8996 25.0049 33.1746C22.723 35.7152 20.488 38.2596 20.4749 38.2746L20.4599 38.2896C20.1674 38.5765 19.5674 38.9383 18.8999 39.0396C18.2249 39.1408 17.4993 39.019 16.7549 38.2746C16.0105 37.5302 15.8736 36.7915 15.9749 36.1146C16.0761 35.4471 16.453 34.8471 16.7399 34.5546L16.7549 34.5396L26.5199 25.5996Z" fill="#1289E0" stroke="#1289E0" stroke-width="0.75"/>
<path d="M27 0C12.0883 0 0 12.0884 0 27C0 41.9116 12.0883 54 27 54C41.9117 54 54 41.9116 54 27C53.9809 12.0962 41.9037 0.019112 27 0ZM28.1583 51.6255H27.6339C27.7181 51.6255 28.0042 51.6255 27.3645 51.6255C26.7248 51.6255 27.0951 51.6255 27 51.6255H25.8417C13.1408 51.0191 2.98088 40.8592 2.37452 28.1583V27.1516C2.37452 26.4808 2.37452 26.8368 2.37452 26.8368C2.37452 26.1971 2.37452 27.1516 2.37452 26.4808V25.8417C2.98088 13.1407 13.1408 2.98088 25.8417 2.37452H27.1909C26.5512 2.37452 27.3246 2.38381 27.1909 2.37452C28.1583 2.37452 28.1928 2.37619 28.1583 2.37452C40.8592 2.98088 51.0191 13.1407 51.6255 25.8417V27.5193C51.6255 27.5193 51.6255 26.959 51.6255 27.5987C51.6255 28.2383 51.6255 27.5193 51.6255 27.5193V27.8441L51.6371 28.1583C51.0303 40.8634 40.8637 51.0248 28.1583 51.6255Z" fill="#1289E0"/>
</svg>
