<svg width="19" height="19" viewBox="0 0 19 19" fill="none" xmlns="http://www.w3.org/2000/svg">
<path d="M17.5171 9.28298L17.0641 5.20294C18.8348 3.86411 19.5688 1.61733 18.5083 0.510809C18.0555 0.0383135 17.3478 -0.115807 16.5669 0.0879225C15.8751 0.26836 15.1657 0.710455 14.5694 1.33269C14.5621 1.3404 14.5551 1.34826 14.5479 1.35583L9.31286 0.723009L0 10.44L8.20408 19L17.5171 9.28298ZM16.8371 1.21562C17.2292 1.11338 17.5511 1.15603 17.7205 1.33269C18.1327 1.76283 17.7551 2.95557 16.9107 3.82236L16.781 2.65398L15.8696 1.70309C16.1877 1.4682 16.5222 1.29775 16.8371 1.21562ZM9.71976 1.94251L13.7625 2.43119C13.5925 2.74442 13.4643 3.06598 13.3847 3.38465L12.9938 2.97674L12.2061 3.79862L14.5694 6.26455L15.3572 5.44252L14.5694 4.62064C14.4 4.44399 14.3592 4.10807 14.4572 3.69894C14.5446 3.33414 14.7362 2.94422 15.0009 2.58078L15.153 2.59923L15.719 3.18985L16.3484 8.85858L8.20408 17.3561L1.57555 10.44L9.71976 1.94251Z" fill="#2972C6"/>
</svg>
