<svg width="56" height="16" viewBox="0 0 56 16" fill="none" xmlns="http://www.w3.org/2000/svg">
<path d="M22.8534 0.798828L20.0557 15.0648H24.5301L27.3301 0.798828H22.8534Z" fill="black"/>
<path d="M16.3039 0.81501L11.9216 10.544L11.4543 9.07501C10.5901 7.30501 8.1365 4.76301 5.25598 3.16101L9.26316 15.058L13.9977 15.051L21.0442 0.812012L16.3039 0.81501Z" fill="black"/>
<path d="M9.75576 1.83576C9.49567 0.966758 8.74188 0.707758 7.80626 0.676758H0.869065L0.811523 0.960758C6.21006 2.09876 9.78223 4.84076 11.2645 8.13776L9.75576 1.83576Z" fill="black"/>
<path d="M36.3986 3.5342C37.8624 3.5142 38.9235 3.7922 39.7475 4.0802L40.1514 4.2452L40.7568 1.1532C39.8706 0.864198 38.4816 0.554199 36.7484 0.554199C32.3269 0.554199 29.2105 2.4892 29.1863 5.2622C29.1576 7.3112 31.4063 8.4552 33.1049 9.1382C34.8484 9.8382 35.433 10.2832 35.425 10.9082C35.4112 11.8632 34.0348 12.3012 32.7493 12.3012C30.9575 12.3012 30.0057 12.0862 28.5361 11.5542L27.9596 11.3262L27.33 14.5192C28.3773 14.9182 30.3095 15.2612 32.3154 15.2792C37.0189 15.2792 40.0755 13.3672 40.1077 10.4042C40.1273 8.7832 38.9339 7.5462 36.3479 6.5312C34.7828 5.8692 33.8253 5.4292 33.8345 4.7612C33.8345 4.1682 34.647 3.5342 36.3986 3.5342Z" fill="black"/>
<path d="M52.2397 0.814941H48.7826C47.7089 0.814941 46.9102 1.06894 46.4384 1.99894L39.7947 15.0729H44.4935C44.4935 15.0729 45.26 13.3149 45.4337 12.9299C45.9482 12.9299 50.5135 12.9359 51.1637 12.9359C51.2972 13.4339 51.7092 15.0729 51.7092 15.0729H55.8602L52.2397 0.814941ZM46.7215 10.0099C47.0898 9.19094 48.5041 6.02294 48.5041 6.02294C48.48 6.06194 48.869 5.19794 49.1003 4.66094L49.4018 5.89094C49.4018 5.89094 50.2592 9.29694 50.4387 10.0099H46.7215Z" fill="black"/>
</svg>
