<svg width="26" height="14" viewBox="0 0 26 14" fill="none" xmlns="http://www.w3.org/2000/svg">
<path d="M25.058 12.5197C25.028 12.457 25 12.4051 24.974 12.3635C24.54 11.6135 23.711 10.693 22.488 9.6017L22.462 9.5767L22.449 9.5644L22.436 9.5519H22.423C21.8672 9.0437 21.5156 8.702 21.3683 8.5271C21.0989 8.1938 21.0385 7.8565 21.1858 7.5147C21.2898 7.2565 21.6806 6.7112 22.357 5.878C22.713 5.4364 22.995 5.0825 23.203 4.81589C24.705 2.89977 25.356 1.67535 25.156 1.14213L25.078 1.01753C25.026 0.942508 24.892 0.873878 24.675 0.811298C24.458 0.748838 24.18 0.738508 23.842 0.780138L20.093 0.804988C20.0323 0.784338 19.9456 0.786258 19.8326 0.811298C19.7198 0.836328 19.6633 0.848888 19.6633 0.848888L19.5981 0.880188L19.5463 0.917778C19.5029 0.942638 19.4552 0.986368 19.403 1.04887C19.3512 1.11115 19.3079 1.18424 19.2732 1.26752C18.8651 2.27552 18.4011 3.21271 17.8803 4.07903C17.5592 4.59561 17.2643 5.0433 16.995 5.4224C16.7261 5.8013 16.5004 6.0805 16.3183 6.2595C16.136 6.4386 15.9714 6.5821 15.8236 6.6905C15.676 6.799 15.5634 6.8448 15.4854 6.828C15.4072 6.8113 15.3335 6.7946 15.2638 6.778C15.1424 6.703 15.0448 6.601 14.9711 6.4719C14.8972 6.3427 14.8474 6.1802 14.8214 5.9845C14.7955 5.7886 14.7802 5.6201 14.7758 5.4784C14.7717 5.3369 14.7736 5.1367 14.7824 4.87852C14.7914 4.62017 14.7955 4.44536 14.7955 4.35371C14.7955 4.0371 14.8019 3.69349 14.8148 3.32278C14.8279 2.95207 14.8386 2.65835 14.8474 2.44197C14.8563 2.22537 14.8604 1.9962 14.8604 1.75461C14.8604 1.51301 14.8451 1.32355 14.8148 1.18603C14.7849 1.04869 14.739 0.915378 14.6785 0.786128C14.6176 0.657018 14.5285 0.557138 14.4116 0.486238C14.2945 0.415418 14.1489 0.359228 13.9756 0.317468C13.5157 0.217548 12.93 0.163498 12.2182 0.155098C10.6043 0.138468 9.56721 0.238518 9.10732 0.455118C8.92511 0.546638 8.76022 0.671678 8.61272 0.829848C8.45652 1.01319 8.43472 1.11325 8.54752 1.1297C9.06822 1.20459 9.43692 1.38373 9.65392 1.66694L9.73202 1.81702C9.79292 1.9253 9.85361 2.117 9.91441 2.39186C9.97501 2.66671 10.0142 2.97076 10.0314 3.30383C10.0747 3.91206 10.0747 4.43271 10.0314 4.86583C9.98802 5.2991 9.94701 5.6364 9.90781 5.878C9.86861 6.1196 9.81012 6.3154 9.73202 6.4653C9.65392 6.6152 9.60181 6.7069 9.57581 6.7402C9.54971 6.7734 9.52802 6.7944 9.51082 6.8026C9.39802 6.8441 9.28072 6.8652 9.15932 6.8652C9.03772 6.8652 8.89031 6.8069 8.71671 6.6902C8.54331 6.5735 8.36321 6.4132 8.17661 6.2091C7.99001 6.0049 7.77961 5.7196 7.54521 5.3531C7.31101 4.98658 7.06801 4.55342 6.81631 4.0536L6.60812 3.69112C6.47802 3.45793 6.30022 3.11839 6.07452 2.6728C5.84882 2.22703 5.64922 1.79584 5.47572 1.37931C5.40642 1.20437 5.30221 1.07119 5.16341 0.979538L5.09831 0.941938C5.05491 0.908678 4.98541 0.873358 4.89001 0.835718C4.79451 0.798118 4.69491 0.771158 4.59061 0.754568L1.02412 0.779428C0.659717 0.779428 0.412419 0.858698 0.282219 1.017L0.230118 1.09189C0.204018 1.1336 0.190918 1.20021 0.190918 1.2919C0.190918 1.38355 0.217012 1.49603 0.269112 1.62922C0.789712 2.80392 1.35591 3.93683 1.96761 5.0281C2.57941 6.1194 3.11102 6.9985 3.56212 7.6645C4.01332 8.331 4.47322 8.9601 4.94182 9.5514C5.41052 10.1429 5.72071 10.522 5.87241 10.6885C6.02441 10.8553 6.14371 10.9801 6.23051 11.0634L6.55602 11.3632C6.76421 11.5632 7.07002 11.8027 7.47362 12.0817C7.87722 12.3609 8.32402 12.6357 8.81432 12.9067C9.30472 13.1772 9.87512 13.398 10.526 13.5687C11.1769 13.7396 11.8103 13.8082 12.4264 13.7751H13.9234C14.227 13.75 14.457 13.6583 14.6133 13.5001L14.6651 13.4375C14.6999 13.3878 14.7325 13.3105 14.7626 13.2066C14.7931 13.1025 14.8082 12.9878 14.8082 12.863C14.7993 12.5048 14.8277 12.1821 14.8926 11.8947C14.9575 11.6074 15.0315 11.3908 15.1142 11.2449C15.1968 11.0992 15.2901 10.9762 15.3939 10.8765C15.4979 10.7766 15.5721 10.716 15.6156 10.6952C15.6588 10.6742 15.6933 10.66 15.7193 10.6515C15.9276 10.5849 16.1727 10.6494 16.455 10.8453C16.737 11.0411 17.0016 11.2828 17.2491 11.5701C17.4964 11.8577 17.7936 12.1803 18.1406 12.5384C18.4879 12.8967 18.7915 13.163 19.0517 13.3382L19.312 13.4882C19.4858 13.5882 19.7114 13.6799 19.9891 13.7631C20.2664 13.8464 20.5093 13.8672 20.7178 13.8256L24.05 13.7757C24.379 13.7757 24.636 13.7233 24.818 13.6194C25 13.5152 25.108 13.4005 25.143 13.2758C25.178 13.1508 25.18 13.0091 25.15 12.8507C25.119 12.6926 25.089 12.5821 25.058 12.5197Z" fill="black"/>
</svg>
