<svg width="608" height="761" fill="none" xmlns="http://www.w3.org/2000/svg"><path d="M455.777 456.6v82.171c-3.559 29.919-19.807 54.202-49.183 72.848-28.93 18.428-64.538 27.534-106.823 27.534-41.838 0-76.111-8.889-102.593-26.45-26.039-17.562-39.169-39.676-39.169-66.994 0-23.85 9.792-42.929 29.376-57.671 19.584-14.527 52.076-26.886 97.922-36.641l98.365-20.813c138.425-28.837 207.638-97.348 207.638-205.32 0-67.21-26.928-121.846-81.008-163.69C456.668 20.38 387.455 0 302.666 0 215.426 0 145.769 20.163 93.47 60.706c-51.631 40.11-78.114 93.663-79.45 160.656h147.995c2.448-31.003 16.469-55.286 42.284-73.498 25.37-17.562 58.084-26.451 97.92-26.451 39.17 0 70.548 8.239 94.139 24.933 24.035 16.695 36.053 38.592 36.053 65.694 0 22.33-9.794 40.759-29.377 55.069-19.14 13.66-50.518 25.367-94.138 35.122l-91.466 18.864c-75.667 15.609-130.859 40.109-165.354 73.497C17.36 427.331 0 471.777 0 527.93c0 71.331 27.596 127.918 82.565 169.762C137.757 739.753 212.088 761 306.003 761c91.022 0 163.349-19.729 217.207-59.188 54.078-39.676 82.342-94.097 84.79-163.041V340.824c-25.593 45.747-72.105 88.024-152.223 115.776z" fill="#fff"/></svg>